<svg xmlns="http://www.w3.org/2000/svg" width="20.952" height="20.079" viewBox="0 0 20.952 20.079">
  <path id="github-image" d="M10.476.5A10.385,10.385,0,0,0,0,10.794a10.311,10.311,0,0,0,7.163,9.767c.524.1.716-.222.716-.5,0-.244-.009-.892-.013-1.75-2.914.621-3.529-1.382-3.529-1.382a2.744,2.744,0,0,0-1.166-1.506c-.95-.638.073-.625.073-.625a2.192,2.192,0,0,1,1.6,1.061A2.256,2.256,0,0,0,7.9,16.72a2.18,2.18,0,0,1,.663-1.377c-2.326-.257-4.772-1.142-4.772-5.087a3.933,3.933,0,0,1,1.08-2.762A3.6,3.6,0,0,1,4.963,4.77s.877-.276,2.881,1.055a10.044,10.044,0,0,1,5.238,0C15.072,4.494,15.95,4.77,15.95,4.77a3.7,3.7,0,0,1,.1,2.725,3.949,3.949,0,0,1,1.074,2.762c0,3.954-2.449,4.825-4.779,5.078a2.443,2.443,0,0,1,.707,1.9c0,1.377-.013,2.485-.013,2.819,0,.27.183.592.72.489a10.28,10.28,0,0,0,7.188-9.754A10.387,10.387,0,0,0,10.476.5Z" transform="translate(0 -0.499)" fill="#7a7a7a"/>
</svg>
